<?xml version="1.0" encoding="UTF-8" standalone="no"?>
<!-- Created with Inkscape (http://www.inkscape.org/) -->

<svg
   xmlns:dc="http://purl.org/dc/elements/1.1/"
   xmlns:cc="http://creativecommons.org/ns#"
   xmlns:rdf="http://www.w3.org/1999/02/22-rdf-syntax-ns#"
   xmlns:svg="http://www.w3.org/2000/svg"
   xmlns="http://www.w3.org/2000/svg"
   xmlns:sodipodi="http://sodipodi.sourceforge.net/DTD/sodipodi-0.dtd"
   xmlns:inkscape="http://www.inkscape.org/namespaces/inkscape"
   width="628.0871"
   height="661.81714"
   id="svg2"
   version="1.1"
   inkscape:version="0.48.2 r9819"
   sodipodi:docname="New document 1">
  <defs
     id="defs4" />
  <sodipodi:namedview
     id="base"
     pagecolor="#ffffff"
     bordercolor="#666666"
     borderopacity="1.0"
     inkscape:pageopacity="0.0"
     inkscape:pageshadow="2"
     inkscape:zoom="0.35"
     inkscape:cx="326.18639"
     inkscape:cy="333.69484"
     inkscape:document-units="px"
     inkscape:current-layer="layer1"
     showgrid="false"
     fit-margin-top="20"
     fit-margin-left="20"
     fit-margin-right="20"
     fit-margin-bottom="20"
     inkscape:window-width="663"
     inkscape:window-height="553"
     inkscape:window-x="138"
     inkscape:window-y="168"
     inkscape:window-maximized="0" />
  <metadata
     id="metadata7">
    <rdf:RDF>
      <cc:Work
         rdf:about="">
        <dc:format>image/svg+xml</dc:format>
        <dc:type
           rdf:resource="http://purl.org/dc/dcmitype/StillImage" />
        <dc:title></dc:title>
      </cc:Work>
    </rdf:RDF>
  </metadata>
  <g
     inkscape:label="Layer 1"
     inkscape:groupmode="layer"
     id="layer1"
     transform="translate(-48.813606,-89.954143)">
    <path
       d="m 656.21411,436.55183 c -0.53628,-7.2677 -1.7767,-14.482 -5.0286,-21.276 -9.4786,-19.803 -33.963,-29.34 -53.026,-19.284 -15.333,8.0885 -22.563,29.331 -13.578,45.149 6.873,12.099 23.072,18.235 35.622,10.228 4.4328,-2.828 7.6343,-7.2793 8.9938,-12.286 1.3595,-5.0063 0.68452,-10.798 -2.9392,-15.401 -2.2364,-2.8407 -5.4473,-4.7654 -9.1114,-5.408 -3.664,-0.64263 -8.1708,0.40388 -10.875,3.9972 -1.7829,2.3692 -1.91,4.5449 -1.4108,7.1127 0.24961,1.2839 0.78116,2.8399 2.3513,3.9972 1.5702,1.1573 4.2926,1.9424 5.5844,0.58783 1.1069,-1.1607 -0.67477,-3.153 -0.73029,-4.7559 -0.0388,-0.83158 -0.0772,-1.7317 0.26004,-2.4745 0.89679,-1.1463 1.8493,-1.342 3.4682,-1.0581 1.6548,0.29023 3.6474,1.4542 4.5851,2.6452 v 0.0588 c 2.0224,2.5986 2.3717,5.5943 1.5284,8.6999 -0.81645,3.0066 -2.8568,5.919 -5.4668,7.7006 l -0.29391,0.23513 c -8.5452,5.4516 -18.484,0.70317 -23.392,-7.9366 -6.7162,-11.823 -1.5113,-26.282 10.285,-32.505 15.078,-7.9537 35.744,1.451 40.36,17.085 4.566,15.464 2.8715,30.938 0.27385,37.511 l 10.609,0.073 c 2.5579,-12.089 1.9287,-15.035 1.9287,-22.696 z"
       id="path6"
       inkscape:connector-curvature="0" />
    <path
       d="m 218.34411,332.39183 c -17.668,-13.594 -26.097,-35.697 -29.523,-57.078 -1.4645,-9.3951 -1.9746,-19.069 -0.14154,-28.452 -14.1,0.29894 -25.825,9.3358 -36.433,17.663 -18.603,15.53 -35.228,33.824 -47.215,54.967 -3.6321,6.1751 5.3435,4.6337 8.8069,5.9233 30.729,5.8422 62.032,11.753 93.438,8.9164 3.7237,-0.42453 7.428,-1.0454 11.069,-1.9403 z"
       id="path8"
       inkscape:connector-curvature="0"
       style="fill:#ffffff" />
    <path
       d="m 401.88411,282.60183 c -10.816,-13.823 -26.523,-22.816 -42.335,-29.821 -12.478,-5.3611 -25.719,-9.195 -39.307,-10.133 -3.6006,-0.49169 -7.2012,-0.98339 -10.802,-1.4751 5.8862,13.4 9.3342,29.076 3.9503,43.223 -5.7766,15.238 -17.145,27.376 -24.994,41.49 -4.6019,5.2258 5.3217,2.7679 8.4635,3.5354 25.451,-0.0247 51.385,-4.4738 74.255,-16.006 13.053,-6.7549 25.175,-16.863 30.769,-30.813 z"
       id="path10"
       inkscape:connector-curvature="0"
       style="fill:#ffffff" />
    <path
       d="m 194.48411,228.73183 a 70.231,70.231 0 0 0 -14.44,42.81 70.235,70.235 0 0 0 140.47,0 70.231,70.231 0 0 0 -14.28,-42.81 h -111.75 z"
       id="path12"
       inkscape:connector-curvature="0"
       style="fill:#000000" />
    <path
       d="m 176.68411,537.26183 c -6.7333,0 -8.7137,-5.4462 -12.181,-25.899 -2.4479,-14.774 -7.1068,-28.463 -10.502,-43.043 -3.0219,-13.117 -5.6425,-20.332 -9.6694,-26.618 -6.5526,-10.229 -6.3011,-20.921 0.71691,-30.481 6.33,-8.6232 6.827,-11.121 6.5471,-32.901 -0.13783,-10.725 -0.56403,-21.286 -0.94711,-23.468 -0.88077,-5.0179 -4.6148,-7.6923 -13.904,-9.9586 -8.4827,-2.0695 -16.525,-2.2933 -41.967002,-1.1681 -18.144,0.80245 -20.457,0.72323 -22.75,-0.77901 -5.627,-3.687 -2.9527,-8.8405 12.261,-23.626 15.69,-15.249 23.876002,-24.688 38.811002,-44.75 26.839,-36.053 30.927,-40.83 57.501,-49.189 19.575,-6.1582 26.691,-9.0119 62.031,-10.06 24.654,-0.7309 38.767,2.5963 45.357,3.3466 25.219,2.8716 66.247,14.877 91.933,26.083 13.581,5.9249 14.042,6.1723 30.115,16.152 11.981,7.4391 18.733,10.459 35.44,15.034 34.886,9.553 56.753,7.7583 92,10.378 9.2579,0.68808 49.298,3.5149 74.5,4.4784 30.689,1.1732 35.835,-2.0376 38.423,0.54994 2.0315,2.0315 0.5636,8.1815 0.6024,14.306 0.0237,3.7378 -0.18399,7.6642 -0.48569,11.602 -8.1923,-1.424 -8.0353,-1.3676 -26.54,-2.9165 -1.6808,-0.14069 -16.718,-1.6695 -44.5,-4.1726 -11.867,-1.0692 -70.326,-2.8448 -105.5,-3.9248 -16.997,-0.52189 -34.357,-4.7228 -51,-1.2347 -5.7624,1.2076 2.387,-1.1161 -16,7.4812 -36.313,14.051 -55.853,23.79 -104.5,32.83 -30.774,4.5201 -33.208,4.9745 -36.376,7.2909 -1.7456,1.2764 -1.662,1.6171 1.6767,6.8363 3.5642,5.5717 14.275,15.81 29.699,28.389 51.619,43.564 115.05,77.431 162.89,98.598 22.221,9.5122 37.55,14.655 50.108,16.811 61.892,13.654 134.26,-9.4938 136.11,-56.959 0.0489,-1.256 0.49928,-6.001 -0.1398,-12.079 -0.44539,-4.2357 -0.89625,-7.3216 -2.2932,-11.095 -3.9795,-10.75 -12.413,-20.407 -28.672,-21.755 -11.746,0.022 -20.375,6.1561 -23.95,16.17 -4.5622,12.78 1.3185,27.071 14.023,29.565 6.6403,1.3038 11.222,-0.5256 14.271,-4.4679 3.3424,-4.3221 3.72,-12.026 1.3559,-15.634 -2.2757,-3.4732 -7.2459,-5.2754 -10.824,-3.9248 -3.6125,1.3636 -4.9933,0.36555 -0.6538,-3.1839 0.38036,-0.24867 0.77844,-0.4586 1.191,-0.63136 6.6675,-2.7918 17.127,4.1226 17.913,14.135 0.7119,11.495 -7.7045,20.279 -19.249,20.94 -6.5659,0.37574 -14.594,-1.9665 -20.026,-7.8035 -13.425,-14.428 -9.1712,-34.885 2.9586,-45.762 4.6131,-4.1366 7.7535,-6.0583 14.065,-7.4773 19.37,-4.3554 37.69,4.5134 45.528,24.301 3.5645,8.9992 3.7675,16.201 3.8515,23.221 0.70438,58.895 -65.742,87.202 -131.95,82.517 -28.009,-2.4123 -46.229,-6.8095 -80.495,-20.915 -36.58,-12.09 -143.44,-68.32 -207.96,-120.33 -18.846,-15.317 -30.511,-22.813 -33.055,-21.24 -0.61585,0.38062 -0.98989,11.992 -0.99221,30.802 -0.004,28.758 -0.1019,30.352 -2.0717,33.583 -3.2793,5.3791 -4.935,17.725 -5.9822,44.608 -1.6327,41.914 -2.675,60.915 -3.4439,62.778 -1.3963,3.383 -7.0306,4.6642 -13.289,4.6642 z m 221.62,-252.27 c 0.41803,-2.1707 -4.6044,-8.6243 -11.231,-13.08 -10.396,-6.9893 -22.385,-11.512 -34.092,-15.96 -71.934,-23.518 -145.08,-20.065 -174.03,-4.962 -10.593,5.1512 -14.126,7.777 -22.813,15.582 -4.1291,3.7102 -9.5939,9.7305 -12.144,13.379 -5.133,7.3428 -10.014,13.339 -19.014,23.362 -9.3026,10.359 -14.5,16.774 -14.5,17.897 0,1.5721 7.8962,3.1488 17.5,3.5809 81.15,10.292 230.44,14.198 270.32,-39.799 z m 224.18,-69.351 c -16.558,-0.50003 -42.467,-2.0158 -63.5,-4.8954 -19.525,-2.6732 -39.047,-6.067 -58,-11.467 -17.982,-5.123 -35.124,-12.85 -52.5,-19.754 -7.7243,-3.0694 -15.32,-6.4533 -23,-9.6318 -8.319,-3.4429 -16.53,-7.1723 -25,-10.224 -15.523,-5.5928 -30.986,-11.946 -47.239,-14.789 -41.988,-7.3464 -85.261,-8.7793 -127.76,-5.4986 -23.554,1.8182 -46.695,7.7124 -69.5,13.878 -17.863,4.8293 -35.019,11.972 -52.5,18.041 -5.069002,1.761 -10.039002,6.841 -15.177002,5.321 -5.396,-1.6 -10.73,-7.749 -10.317,-13.361 0.434,-5.884 7.835,-9.014 12.753,-12.272 16.823002,-11.146 36.498002,-17.485 55.661002,-23.803 19.219,-6.3349 38.923,-12.127 59.072,-14.001 54.326,-5.0532 110.09,-3.4301 163.5,7.7269 28.29,5.9098 53.945,20.759 81,30.92 31.437,11.806 61.76,27.444 94.5,34.909 33.045,7.534 83.745,9.6292 101.22,9.5911 6.5425,-0.0143 6.7685,0.0708 8.3595,3.1475 1.8515,3.5805 3.1256,14.296 1.7926,15.077 -1.3395,0.78418 -21.593,1.4453 -33.376,1.0894 z"
       id="path14"
       inkscape:connector-curvature="0"
       style="stroke:#000000" />
    <g
       style="font-size:253.73745728px;font-style:normal;font-variant:normal;font-weight:normal;font-stretch:normal;line-height:125%;letter-spacing:0px;word-spacing:0px;fill:#000000;fill-opacity:1;stroke:none;font-family:TitilliumMaps26L;-inkscape-font-specification:TitilliumMaps26L"
       id="text2997">
      <path
         d="m 138.836,711.21792 c -17.22228,0.11102 -29.21121,-5.43941 -35.96683,-16.65131 -6.75571,-11.21184 -9.990816,-28.7512 -9.705325,-52.61813 -0.253771,-23.96191 3.04477,-41.88187 9.895635,-53.75993 6.85077,-11.87778 18.77626,-17.80881 35.77652,-17.79311 16.88908,1.6e-4 28.78286,5.9629 35.68136,17.88826 6.89827,11.92563 10.22853,29.81387 9.99079,53.66478 0.26947,24.42198 -2.99736,42.11992 -9.80048,53.09388 -6.80336,10.97403 -18.76058,16.36587 -35.87167,16.17556 z m 0,20.55247 c 24.94513,0.0951 42.67479,-7.19971 53.18902,-21.88458 10.51397,-14.68484 15.62036,-37.33059 15.31921,-67.93733 0.30116,-30.02509 -4.80524,-52.81886 -15.3192,-68.38137 -10.51424,-15.56219 -28.2439,-23.38565 -53.18903,-23.47041 -24.9453,0.10062 -42.674965,7.9558 -53.189037,23.56557 -10.51413,15.61008 -15.620523,38.37213 -15.319196,68.28621 -0.317177,30.0517 4.757502,52.53887 15.224052,67.46158 10.466492,14.92274 28.227871,22.37618 53.284181,22.36033 z"
         id="path3014"
         inkscape:connector-curvature="0" />
      <path
         d="m 318.79292,554.91765 c -0.75604,-0.21126 -6.53906,-1.05704 -17.34907,-2.53734 -10.81023,-1.47994 -22.11196,-2.32572 -33.90523,-2.53734 -17.98876,-0.0104 -31.80668,3.94363 -41.45383,11.86208 -9.64721,7.91878 -14.52101,19.86542 -14.62143,35.83995 -0.12159,15.29288 3.92758,26.57347 12.14753,33.84179 8.2199,7.26852 21.34005,13.15726 39.36051,17.66625 13.68571,3.3092 23.48618,7.09406 29.40145,11.35461 5.91508,4.26068 8.8013,10.45602 8.65868,18.58602 -0.0424,11.21192 -3.12949,19.36312 -9.2613,24.45363 -6.132,5.09056 -15.05497,7.59619 -26.76895,7.51688 -5.89234,-0.047 -12.71496,-0.37588 -20.4679,-0.98674 -7.75303,-0.61082 -14.57565,-1.22167 -20.46789,-1.83253 -5.89229,-0.61082 -8.99349,-0.93973 -9.30358,-0.98674 l -1.26868,19.2838 c 0.25372,0.0627 3.24214,0.50121 8.96528,1.31566 5.72308,0.81445 12.65848,1.62891 20.8062,2.44336 8.14763,0.81445 15.98519,1.25301 23.5127,1.31566 19.22029,0.0793 33.42939,-4.20247 42.62735,-12.84529 9.19774,-8.64281 13.76495,-22.12243 13.70165,-40.43889 0.12145,-14.27777 -3.73742,-24.73372 -11.57663,-31.36789 -7.83944,-6.63401 -20.38869,-12.07871 -37.64781,-16.33414 -14.55806,-3.58389 -24.96115,-7.64364 -31.2093,-12.17924 -6.24825,-4.53538 -9.29305,-11.63993 -9.13443,-21.31367 0.0475,-8.89113 3.06063,-15.59394 9.03928,-20.10844 5.97856,-4.5142 14.63723,-6.77666 25.97603,-6.78738 5.24063,0.0503 11.67482,0.40112 19.30259,1.05252 7.6276,0.65172 14.43769,1.30328 20.43031,1.95469 5.99239,0.65172 9.15624,1.00256 9.49154,1.05253 z"
         id="path3016"
         inkscape:connector-curvature="0" />
      <path
         d="m 331.69985,728.97931 22.07487,0 0,-176.34526 -22.07487,0 z"
         id="path3018"
         inkscape:connector-curvature="0" />
      <path
         d="m 439.52892,663.26215 29.6869,65.71716 24.35848,0 -32.22424,-70.79184 c 10.61442,-3.74251 18.43788,-9.95899 23.4704,-18.64947 5.03226,-8.69029 7.52731,-19.47398 7.48517,-32.3511 -0.053,-18.59118 -4.8951,-32.34568 -14.52629,-41.26353 -9.63144,-8.91753 -23.73482,-13.3473 -42.31017,-13.28932 l -62.67235,0 0,176.34526 21.82114,0 0,-65.46342 39.07507,0 z m 29.94063,-55.82152 c 0.10032,10.27106 -2.51103,18.78171 -7.83404,25.532 -5.32324,6.75048 -13.96077,10.24989 -25.91261,10.49826 l -41.10494,0 0,-70.28437 40.85121,0 c 10.96333,0.0636 19.35769,3.04496 25.18311,8.94413 5.8252,5.89946 8.76429,14.33611 8.81727,25.30998 z"
         id="path3020"
         inkscape:connector-curvature="0" />
      <path
         d="m 505.94626,728.97931 22.07487,0 0,-176.34526 -22.07487,0 z"
         id="path3022"
         inkscape:connector-curvature="0" />
      <path
         d="m 650.89444,554.91765 c -0.75604,-0.21126 -6.53906,-1.05704 -17.34908,-2.53734 -10.81022,-1.47994 -22.11195,-2.32572 -33.90523,-2.53734 -17.98875,-0.0104 -31.80668,3.94363 -41.45382,11.86208 -9.64721,7.91878 -14.52101,19.86542 -14.62143,35.83995 -0.1216,15.29288 3.92757,26.57347 12.14752,33.84179 8.2199,7.26852 21.34006,13.15726 39.36052,17.66625 13.68571,3.3092 23.48618,7.09406 29.40145,11.35461 5.91507,4.26068 8.8013,10.45602 8.65868,18.58602 -0.0424,11.21192 -3.1295,19.36312 -9.2613,24.45363 -6.132,5.09056 -15.05498,7.59619 -26.76896,7.51688 -5.89233,-0.047 -12.71496,-0.37588 -20.46789,-0.98674 -7.75303,-0.61082 -14.57566,-1.22167 -20.4679,-1.83253 -5.89229,-0.61082 -8.99348,-0.93973 -9.30358,-0.98674 l -1.26867,19.2838 c 0.25372,0.0627 3.24214,0.50121 8.96527,1.31566 5.72309,0.81445 12.65848,1.62891 20.8062,2.44336 8.14764,0.81445 15.9852,1.25301 23.51271,1.31566 19.22028,0.0793 33.42938,-4.20247 42.62735,-12.84529 9.19774,-8.64281 13.76495,-22.12243 13.70164,-40.43889 0.12146,-14.27777 -3.73741,-24.73372 -11.57662,-31.36789 -7.83944,-6.63401 -20.3887,-12.07871 -37.64781,-16.33414 -14.55806,-3.58389 -24.96115,-7.64364 -31.20931,-12.17924 -6.24824,-4.53538 -9.29305,-11.63993 -9.13443,-21.31367 0.0476,-8.89113 3.06064,-15.59394 9.03929,-20.10844 5.97856,-4.5142 14.63723,-6.77666 25.97603,-6.78738 5.24063,0.0503 11.67482,0.40112 19.30259,1.05252 7.62759,0.65172 14.43769,1.30328 20.4303,1.95469 5.9924,0.65172 9.15624,1.00256 9.49154,1.05253 z"
         id="path3024"
         inkscape:connector-curvature="0" />
    </g>
  </g>
</svg>
